<svg width="5" height="5" viewBox="0 0 5 5" fill="none" xmlns="http://www.w3.org/2000/svg">
<path d="M5.00003 0V1.00156C4.47476 1.0009 3.95452 1.10387 3.46911 1.30458C2.98369 1.50528 2.54265 1.79978 2.17122 2.1712C1.7998 2.54263 1.5053 2.98367 1.30459 3.46908C1.10388 3.9545 1.00091 4.47473 1.00157 5H5.24494e-06C-0.00112014 4.22405 0.17887 3.45856 0.525654 2.76441C0.872437 2.07027 1.37644 1.46664 1.99757 1.00156H5.24494e-06V0H5.00003Z" fill="#00FFFF"/>
<path d="M5.00025 1.2866V4.99983H4.00027V2.47657C3.49487 2.67726 3.06137 3.02507 2.7559 3.47495C2.45043 3.92482 2.28707 4.45605 2.28697 4.99983H1.28699C1.28641 4.51204 1.38205 4.02892 1.56845 3.57815C1.75485 3.12738 2.02835 2.7178 2.37327 2.37288C2.7182 2.02796 3.12778 1.75446 3.57855 1.56806C4.02933 1.38166 4.51245 1.28602 5.00025 1.2866Z" fill="#00FFFF"/>
</svg>
